<svg xmlns="http://www.w3.org/2000/svg" viewBox="0 0 1052.65 837.28"><defs><style>.cls-1{fill:#fff;}.cls-1,.cls-2,.cls-3,.cls-4,.cls-5{opacity:0.7;}.cls-2{fill:#2dbf00;}.cls-3{fill:#b00093;}.cls-4{fill:#f46200;}.cls-5{fill:#0071d6;}</style></defs><g id="Layer_2" data-name="Layer 2"><g id="Layer_1-2" data-name="Layer 1"><path class="cls-1" d="M784.47,811l.81-1c.49-.59,1-1.19,1.43-1.8.3-.37.59-.76.88-1.14.43-.58.86-1.17,1.27-1.77.29-.4.58-.82.86-1.23q.62-.92,1.2-1.86c.25-.4.5-.79.74-1.2.43-.69.83-1.4,1.23-2.11l.56-1c.46-.85.89-1.7,1.31-2.56l.33-.64c.51-1.07,1-2.14,1.46-3.23l0-.07c.65-1.54,1.26-3.1,1.81-4.69l249.72-686.11a75,75,0,0,0-44.83-96.13h0a75,75,0,0,0-96.12,44.83L727.51,542.93,600.75,194.64a75,75,0,0,0-48-56h0a74.81,74.81,0,0,0-62.39,5.11l-.37.21-1.51.88a75,75,0,0,0-35.24,47.93L325.8,543,146.15,49.38A75,75,0,0,0,50,4.55h0A75,75,0,0,0,5.2,100.68L255.33,787.9c.21.6.46,1.17.69,1.76.16.41.31.82.48,1.22.34.83.7,1.65,1.07,2.46.12.27.24.54.37.81.42.91.87,1.81,1.34,2.7l.23.46c.51,1,1,1.92,1.59,2.86a2.53,2.53,0,0,1,.13.22c.59,1,1.19,2,1.81,2.91l.08.12c.63,1,1.29,1.92,2,2.85a1.13,1.13,0,0,0,.1.13c.66.91,1.34,1.81,2.05,2.69l.19.24c.67.83,1.35,1.64,2.05,2.44l.39.43c.64.72,1.3,1.43,2,2.13l.64.65c.6.61,1.21,1.2,1.83,1.79l.92.85c.55.51,1.11,1,1.68,1.49.39.34.79.67,1.19,1l1.54,1.24,1.4,1.07,1.48,1.07,1.53,1q.76.51,1.53,1c.51.32,1,.64,1.53,1s1.15.68,1.73,1,.92.53,1.39.78q1,.56,2.1,1.08l1.1.55q1.32.63,2.67,1.2l.63.28A74.67,74.67,0,0,0,347,834.19l.51-.14c.82-.25,1.63-.52,2.44-.8l1.1-.37.45-.15h0c.65-.24,1.29-.5,1.93-.76l1-.4c.86-.36,1.71-.73,2.55-1.12.24-.11.49-.21.73-.33.92-.43,1.82-.88,2.72-1.35.15-.08.31-.15.46-.24,1-.5,1.89-1,2.82-1.56l.29-.17c.95-.56,1.89-1.15,2.81-1.75l.24-.15c.92-.61,1.82-1.23,2.71-1.87l.3-.22c.85-.62,1.68-1.25,2.5-1.91l.46-.36c.75-.61,1.49-1.23,2.21-1.86l.68-.6q.94-.86,1.86-1.74l.93-.9c.51-.51,1-1,1.5-1.54s.78-.83,1.16-1.25.78-.87,1.17-1.31.89-1.05,1.32-1.58l.9-1.12c.48-.6.95-1.22,1.41-1.84l.71-1c.48-.67.94-1.34,1.4-2,.21-.32.42-.64.62-1,.45-.7.89-1.4,1.31-2.11l.62-1.06c.39-.68.78-1.37,1.15-2.07.23-.43.45-.86.67-1.3.32-.63.64-1.26.94-1.9s.51-1.12.76-1.68.48-1.07.71-1.62c.3-.72.58-1.45.86-2.18.12-.34.27-.67.39-1L526.66,429.67l130,357.12c.55,1.58,1.16,3.14,1.81,4.68l0,.08c.46,1.08.94,2.15,1.45,3.22l.33.65c.42.85.85,1.7,1.31,2.54.18.34.37.68.56,1,.4.71.8,1.42,1.22,2.11l.75,1.2q.58.94,1.2,1.86l.85,1.23c.42.6.85,1.19,1.28,1.77l.87,1.14q.71.91,1.44,1.8l.81,1c.55.64,1.1,1.27,1.67,1.89l.67.72c.65.69,1.3,1.36,2,2,.15.16.31.31.47.47.75.72,1.51,1.43,2.29,2.12l.28.25c.84.74,1.7,1.46,2.58,2.17l.11.09c.91.73,1.85,1.45,2.81,2.14h0c1,.7,2,1.38,3,2h0c1,.64,2,1.26,3,1.86l.15.09c1,.56,1.93,1.1,2.92,1.62l.42.22c.9.46,1.81.92,2.73,1.35l.8.36c.81.37,1.62.74,2.45,1.08l1.27.49c.57.23,1.13.47,1.71.68h0l.41.14c.53.19,1.07.35,1.6.53s1.28.44,1.91.63l1.63.46c.65.18,1.3.37,2,.53.37.1.75.17,1.13.26a73.79,73.79,0,0,0,8.75,1.51l.9.11c.78.08,1.56.13,2.34.18l1.34.1c.68,0,1.35,0,2,.05s1.11,0,1.67,0,1.15,0,1.73,0,1.31,0,2-.05l1.42-.11c.76,0,1.51-.09,2.27-.17l1-.12a73.33,73.33,0,0,0,8.58-1.48l1.22-.28c.64-.16,1.27-.35,1.9-.52s1.12-.3,1.68-.47,1.25-.41,1.88-.62,1.09-.35,1.63-.55l.4-.13h0c.58-.21,1.14-.45,1.71-.67l1.28-.5c.82-.34,1.63-.71,2.44-1.07l.81-.37c.92-.43,1.83-.88,2.72-1.35l.43-.22c1-.52,2-1.06,2.91-1.62l.16-.09c1-.6,2-1.22,3-1.86h0c1-.66,2-1.34,3-2h0c1-.69,1.89-1.41,2.81-2.14l.11-.09c.88-.71,1.74-1.43,2.58-2.17l.28-.25c.78-.69,1.54-1.4,2.28-2.12l.49-.47c.67-.66,1.32-1.33,2-2l.68-.72C783.37,812.31,783.92,811.68,784.47,811Z"/><rect class="cls-2" x="411.25" y="343.64" width="881.33" height="150" rx="75" transform="translate(1536.68 -238.71) rotate(110)"/><rect class="cls-3" x="257.2" y="410.9" width="738.17" height="150" rx="75" transform="translate(383.89 1240.61) rotate(-110)"/><rect class="cls-4" x="56.49" y="410.67" width="738.67" height="150" rx="75" transform="translate(1027.84 251.64) rotate(110)"/><rect class="cls-5" x="-240.58" y="343.65" width="881.33" height="150" rx="75" transform="matrix(-0.34, -0.94, 0.94, -0.34, -124.89, 749.86)"/></g></g></svg>